<svg width="251" height="25" viewBox="0 0 251 25" fill="none" xmlns="http://www.w3.org/2000/svg">
<g clip-path="url(#clip0_86_5)">
<path d="M9.12 24.128C7.328 24.128 5.61067 23.8933 3.968 23.424C2.32533 22.9333 1.00267 22.304 0 21.536L1.76 17.632C2.72 18.3147 3.85067 18.88 5.152 19.328C6.47467 19.7547 7.808 19.968 9.152 19.968C10.176 19.968 10.9973 19.872 11.616 19.68C12.256 19.4667 12.7253 19.1787 13.024 18.816C13.3227 18.4533 13.472 18.0373 13.472 17.568C13.472 16.9707 13.2373 16.5013 12.768 16.16C12.2987 15.7973 11.68 15.5093 10.912 15.296C10.144 15.0613 9.29067 14.848 8.352 14.656C7.43467 14.4427 6.50667 14.1867 5.568 13.888C4.65067 13.5893 3.808 13.2053 3.04 12.736C2.272 12.2667 1.64267 11.648 1.152 10.88C0.682667 10.112 0.448 9.13067 0.448 7.936C0.448 6.656 0.789333 5.49333 1.472 4.448C2.176 3.38133 3.22133 2.53867 4.608 1.92C6.016 1.28 7.776 0.960001 9.888 0.960001C11.296 0.960001 12.6827 1.13067 14.048 1.472C15.4133 1.792 16.6187 2.28267 17.664 2.944L16.064 6.88C15.0187 6.28267 13.9733 5.84533 12.928 5.568C11.8827 5.26933 10.8587 5.12 9.856 5.12C8.85333 5.12 8.032 5.23733 7.392 5.472C6.752 5.70667 6.29333 6.016 6.016 6.4C5.73867 6.76267 5.6 7.18933 5.6 7.68C5.6 8.256 5.83467 8.72533 6.304 9.088C6.77333 9.42933 7.392 9.70667 8.16 9.92C8.928 10.1333 9.77067 10.3467 10.688 10.56C11.6267 10.7733 12.5547 11.0187 13.472 11.296C14.4107 11.5733 15.264 11.9467 16.032 12.416C16.8 12.8853 17.4187 13.504 17.888 14.272C18.3787 15.04 18.624 16.0107 18.624 17.184C18.624 18.4427 18.272 19.5947 17.568 20.64C16.864 21.6853 15.808 22.528 14.4 23.168C13.0133 23.808 11.2533 24.128 9.12 24.128Z" fill="#303031"/>
<path d="M25.2137 23.744V5.568H18.0457V1.344H37.5658V5.568H30.3978V23.744H25.2137Z" fill="#303031"/>
<path d="M35.006 23.744L44.99 1.344H50.11L60.126 23.744H54.686L46.494 3.968H48.542L40.318 23.744H35.006ZM39.998 18.944L41.374 15.008H52.894L54.302 18.944H39.998Z" fill="#303031"/>
<path d="M61.17 23.744V1.344H70.866C72.8713 1.344 74.5993 1.67467 76.05 2.336C77.5007 2.976 78.6207 3.904 79.41 5.12C80.1993 6.336 80.594 7.78667 80.594 9.472C80.594 11.136 80.1993 12.576 79.41 13.792C78.6207 14.9867 77.5007 15.904 76.05 16.544C74.5993 17.184 72.8713 17.504 70.866 17.504H64.05L66.354 15.232V23.744H61.17ZM75.41 23.744L69.81 15.616H75.346L81.01 23.744H75.41ZM66.354 15.808L64.05 13.376H70.578C72.178 13.376 73.3727 13.0347 74.162 12.352C74.9513 11.648 75.346 10.688 75.346 9.472C75.346 8.23467 74.9513 7.27467 74.162 6.592C73.3727 5.90933 72.178 5.568 70.578 5.568H64.05L66.354 3.104V15.808Z" fill="#303031"/>
<path d="M87.7487 23.744V5.568H80.5807V1.344H100.101V5.568H92.9327V23.744H87.7487Z" fill="#303031"/>
<path d="M111.187 24.128C108.008 24.128 105.523 23.2427 103.731 21.472C101.939 19.7013 101.043 17.1733 101.043 13.888V1.344H106.227V13.696C106.227 15.8293 106.664 17.3653 107.539 18.304C108.414 19.2427 109.64 19.712 111.219 19.712C112.798 19.712 114.024 19.2427 114.899 18.304C115.774 17.3653 116.211 15.8293 116.211 13.696V1.344H121.331V13.888C121.331 17.1733 120.435 19.7013 118.643 21.472C116.851 23.2427 114.366 24.128 111.187 24.128Z" fill="#303031"/>
<path d="M125.174 23.744V1.344H134.87C136.875 1.344 138.603 1.67467 140.054 2.336C141.504 2.976 142.624 3.904 143.414 5.12C144.203 6.336 144.598 7.78667 144.598 9.472C144.598 11.136 144.203 12.576 143.414 13.792C142.624 15.008 141.504 15.9467 140.054 16.608C138.603 17.248 136.875 17.568 134.87 17.568H128.054L130.358 15.232V23.744H125.174ZM130.358 15.808L128.054 13.344H134.582C136.182 13.344 137.376 13.0027 138.166 12.32C138.955 11.6373 139.35 10.688 139.35 9.472C139.35 8.23467 138.955 7.27467 138.166 6.592C137.376 5.90933 136.182 5.568 134.582 5.568H128.054L130.358 3.104V15.808Z" fill="#303031"/>
<path d="M161.594 23.936C159.93 23.936 158.33 23.6693 156.794 23.136C155.28 22.5813 154.106 21.8773 153.274 21.024L154.202 19.2C154.992 19.968 156.048 20.6187 157.37 21.152C158.714 21.664 160.122 21.92 161.594 21.92C163.002 21.92 164.144 21.7493 165.018 21.408C165.914 21.0453 166.565 20.5653 166.97 19.968C167.397 19.3707 167.61 18.7093 167.61 17.984C167.61 17.1093 167.354 16.4053 166.842 15.872C166.352 15.3387 165.701 14.9227 164.89 14.624C164.08 14.304 163.184 14.0267 162.202 13.792C161.221 13.5573 160.24 13.312 159.258 13.056C158.277 12.7787 157.37 12.416 156.538 11.968C155.728 11.52 155.066 10.9333 154.554 10.208C154.064 9.46133 153.818 8.49067 153.818 7.296C153.818 6.18667 154.106 5.17333 154.682 4.256C155.28 3.31733 156.186 2.57067 157.402 2.016C158.618 1.44 160.176 1.152 162.074 1.152C163.333 1.152 164.581 1.33333 165.818 1.696C167.056 2.03733 168.122 2.51733 169.018 3.136L168.218 5.024C167.258 4.384 166.234 3.91467 165.146 3.616C164.08 3.31733 163.045 3.168 162.042 3.168C160.698 3.168 159.589 3.34933 158.714 3.712C157.84 4.07467 157.189 4.56533 156.762 5.184C156.357 5.78133 156.154 6.464 156.154 7.232C156.154 8.10667 156.4 8.81067 156.89 9.344C157.402 9.87733 158.064 10.2933 158.874 10.592C159.706 10.8907 160.613 11.1573 161.594 11.392C162.576 11.6267 163.546 11.8827 164.506 12.16C165.488 12.4373 166.384 12.8 167.194 13.248C168.026 13.6747 168.688 14.2507 169.178 14.976C169.69 15.7013 169.946 16.6507 169.946 17.824C169.946 18.912 169.648 19.9253 169.05 20.864C168.453 21.7813 167.536 22.528 166.298 23.104C165.082 23.6587 163.514 23.936 161.594 23.936Z" fill="#303031"/>
<path d="M180.322 23.904C178.658 23.904 177.164 23.5413 175.842 22.816C174.54 22.0693 173.516 21.056 172.77 19.776C172.023 18.4747 171.65 16.992 171.65 15.328C171.65 13.6427 172.023 12.16 172.77 10.88C173.516 9.6 174.54 8.59733 175.842 7.872C177.164 7.14667 178.658 6.784 180.322 6.784C181.751 6.784 183.042 7.06133 184.194 7.616C185.346 8.17067 186.252 9.00267 186.914 10.112L185.218 11.264C184.642 10.4107 183.927 9.78134 183.074 9.376C182.22 8.97067 181.292 8.768 180.29 8.768C179.095 8.768 178.018 9.04533 177.058 9.6C176.098 10.1333 175.34 10.8907 174.786 11.872C174.231 12.8533 173.954 14.0053 173.954 15.328C173.954 16.6507 174.231 17.8027 174.786 18.784C175.34 19.7653 176.098 20.5333 177.058 21.088C178.018 21.6213 179.095 21.888 180.29 21.888C181.292 21.888 182.22 21.6853 183.074 21.28C183.927 20.8747 184.642 20.256 185.218 19.424L186.914 20.576C186.252 21.664 185.346 22.496 184.194 23.072C183.042 23.6267 181.751 23.904 180.322 23.904Z" fill="#303031"/>
<path d="M198.423 6.784C199.788 6.784 200.983 7.05067 202.007 7.584C203.052 8.096 203.863 8.88533 204.439 9.952C205.036 11.0187 205.335 12.3627 205.335 13.984V23.744H203.063V14.208C203.063 12.4373 202.615 11.104 201.719 10.208C200.844 9.29067 199.607 8.832 198.007 8.832C196.812 8.832 195.767 9.07733 194.871 9.568C193.996 10.0373 193.314 10.7307 192.823 11.648C192.354 12.544 192.119 13.632 192.119 14.912V23.744H189.847V0H192.119V11.552L191.671 10.688C192.204 9.472 193.058 8.52267 194.231 7.84C195.404 7.136 196.802 6.784 198.423 6.784Z" fill="#303031"/>
<path d="M217.04 23.904C215.419 23.904 213.957 23.5413 212.656 22.816C211.376 22.0693 210.363 21.056 209.616 19.776C208.869 18.4747 208.496 16.992 208.496 15.328C208.496 13.6427 208.869 12.16 209.616 10.88C210.363 9.6 211.376 8.59733 212.656 7.872C213.936 7.14667 215.397 6.784 217.04 6.784C218.704 6.784 220.176 7.14667 221.456 7.872C222.757 8.59733 223.771 9.6 224.496 10.88C225.243 12.16 225.616 13.6427 225.616 15.328C225.616 16.992 225.243 18.4747 224.496 19.776C223.771 21.056 222.757 22.0693 221.456 22.816C220.155 23.5413 218.683 23.904 217.04 23.904ZM217.04 21.888C218.256 21.888 219.333 21.6213 220.272 21.088C221.211 20.5333 221.947 19.7653 222.48 18.784C223.035 17.7813 223.312 16.6293 223.312 15.328C223.312 14.0053 223.035 12.8533 222.48 11.872C221.947 10.8907 221.211 10.1333 220.272 9.6C219.333 9.04533 218.267 8.768 217.072 8.768C215.877 8.768 214.811 9.04533 213.872 9.6C212.933 10.1333 212.187 10.8907 211.632 11.872C211.077 12.8533 210.8 14.0053 210.8 15.328C210.8 16.6293 211.077 17.7813 211.632 18.784C212.187 19.7653 212.933 20.5333 213.872 21.088C214.811 21.6213 215.867 21.888 217.04 21.888Z" fill="#303031"/>
<path d="M235.823 23.904C234.201 23.904 232.74 23.5413 231.439 22.816C230.159 22.0693 229.145 21.056 228.398 19.776C227.652 18.4747 227.279 16.992 227.279 15.328C227.279 13.6427 227.652 12.16 228.398 10.88C229.145 9.6 230.159 8.59733 231.439 7.872C232.719 7.14667 234.18 6.784 235.823 6.784C237.487 6.784 238.959 7.14667 240.239 7.872C241.54 8.59733 242.553 9.6 243.279 10.88C244.025 12.16 244.398 13.6427 244.398 15.328C244.398 16.992 244.025 18.4747 243.279 19.776C242.553 21.056 241.54 22.0693 240.239 22.816C238.937 23.5413 237.465 23.904 235.823 23.904ZM235.823 21.888C237.039 21.888 238.116 21.6213 239.055 21.088C239.993 20.5333 240.729 19.7653 241.262 18.784C241.817 17.7813 242.094 16.6293 242.094 15.328C242.094 14.0053 241.817 12.8533 241.262 11.872C240.729 10.8907 239.993 10.1333 239.055 9.6C238.116 9.04533 237.049 8.768 235.855 8.768C234.66 8.768 233.593 9.04533 232.655 9.6C231.716 10.1333 230.969 10.8907 230.415 11.872C229.86 12.8533 229.583 14.0053 229.583 15.328C229.583 16.6293 229.86 17.7813 230.415 18.784C230.969 19.7653 231.716 20.5333 232.655 21.088C233.593 21.6213 234.649 21.888 235.823 21.888Z" fill="#303031"/>
<path d="M247.757 23.744V0H250.029V23.744H247.757Z" fill="#303031"/>
</g>
<defs>
<clipPath id="clip0_86_5">
<rect width="250.029" height="24.128" fill="white"/>
</clipPath>
</defs>
</svg>
